<svg width="346" height="346" viewBox="0 0 346 346" fill="none" xmlns="http://www.w3.org/2000/svg">
<path d="M178.013 284.511C241.71 284.511 293.346 232.874 293.346 169.177C293.346 105.48 241.71 53.844 178.013 53.844C114.316 53.844 62.6797 105.48 62.6797 169.177C62.6797 232.874 114.316 284.511 178.013 284.511Z" fill="#1B1464"/>
<path d="M257.193 201.323C257.193 205.26 253.745 208.177 249.806 208.177H249.697C245.758 208.177 242.776 205.26 242.776 201.323V180.682C242.776 176.745 245.758 173.577 249.697 173.577H249.806C253.745 173.577 257.193 176.745 257.193 180.682V201.323Z" fill="#F9AB10"/>
<path d="M119.37 181.765V206.399L136.05 193.055L119.37 181.765Z" fill="#F9AB10"/>
<path d="M238.74 181.765V206.399L222.06 193.055L238.74 181.765Z" fill="#F9AB10"/>
<path d="M152.113 208.452C155.443 208.452 158.143 205.753 158.143 202.422C158.143 199.092 155.443 196.392 152.113 196.392C148.782 196.392 146.083 199.092 146.083 202.422C146.083 205.753 148.782 208.452 152.113 208.452Z" fill="#F9AB10"/>
<path d="M205.487 208.452C208.818 208.452 211.517 205.753 211.517 202.422C211.517 199.092 208.818 196.392 205.487 196.392C202.157 196.392 199.457 199.092 199.457 202.422C199.457 205.753 202.157 208.452 205.487 208.452Z" fill="#F9AB10"/>
<path d="M239.56 153.737C239.269 153.543 238.654 153.372 237.779 153.222C237.824 152.249 237.82 151.281 237.82 150.297C237.82 121.736 219.134 97.7704 193.184 91.1589V100.917H191.454V91.1589V82.4634H166.657V91.197V100.917H164.35V91.197C138.977 97.869 120.039 121.796 120.039 150.297C120.039 150.601 120.093 150.904 120.099 151.207C120.107 151.809 120.187 152.414 120.218 153.017C118.56 153.214 117.467 153.45 117.037 153.737C111.993 157.101 113.26 157.939 113.26 161.303C113.26 163.179 119.254 168.452 124.552 172.75C126.286 175.411 130.135 179.412 132.027 180.447C132.027 180.447 164.718 185.513 176.686 185.499C189.366 185.485 225.01 180.377 225.01 180.377C228.371 178.695 233.137 174.649 234.477 170.75C239.022 166.935 243.343 162.897 243.343 161.304C243.343 157.939 244.604 157.101 239.56 153.737Z" fill="#F9AB10"/>
<path fill-rule="evenodd" clip-rule="evenodd" d="M184 232.973H168.213C167.441 232.973 166.675 233.247 165.961 233.613C165.356 233.736 164.791 233.928 164.299 234.171C153.895 239.301 143.191 234.351 133.722 231.488C120.596 227.521 112.723 219.112 110.109 207.128C111.933 205.838 113.027 203.729 113.027 201.324V180.683C113.027 176.745 110.046 173.577 106.106 173.577H105.998C102.059 173.577 98.6101 176.745 98.6101 180.683V201.324C98.6101 205.261 102.058 208.177 105.998 208.177H106.106C106.137 208.177 106.165 208.307 106.197 208.307C107.588 214.903 111.09 221.248 116.178 225.944C125.755 234.785 137.619 237.838 150.161 239.137C152.833 239.412 156.143 240.783 158.797 241.282C160.093 241.526 161.597 241.668 163.182 241.751C164.186 243.108 166.183 243.355 168.214 243.355H184.002C186.869 243.355 189.148 242.925 189.148 239.459V239.362C189.147 235.897 186.867 232.973 184 232.973Z" fill="#F9AB10"/>
<path d="M48.44 324.168C47.272 324.168 46.216 323.968 45.272 323.568C44.344 323.168 43.608 322.592 43.064 321.84C42.52 321.088 42.24 320.2 42.224 319.176H45.824C45.872 319.864 46.112 320.408 46.544 320.808C46.992 321.208 47.6 321.408 48.368 321.408C49.152 321.408 49.768 321.224 50.216 320.856C50.664 320.472 50.888 319.976 50.888 319.368C50.888 318.872 50.736 318.464 50.432 318.144C50.128 317.824 49.744 317.576 49.28 317.4C48.832 317.208 48.208 317 47.408 316.776C46.32 316.456 45.432 316.144 44.744 315.84C44.072 315.52 43.488 315.048 42.992 314.424C42.512 313.784 42.272 312.936 42.272 311.88C42.272 310.888 42.52 310.024 43.016 309.288C43.512 308.552 44.208 307.992 45.104 307.608C46 307.208 47.024 307.008 48.176 307.008C49.904 307.008 51.304 307.432 52.376 308.28C53.464 309.112 54.064 310.28 54.176 311.784H50.48C50.448 311.208 50.2 310.736 49.736 310.368C49.288 309.984 48.688 309.792 47.936 309.792C47.28 309.792 46.752 309.96 46.352 310.296C45.968 310.632 45.776 311.12 45.776 311.76C45.776 312.208 45.92 312.584 46.208 312.888C46.512 313.176 46.88 313.416 47.312 313.608C47.76 313.784 48.384 313.992 49.184 314.232C50.272 314.552 51.16 314.872 51.848 315.192C52.536 315.512 53.128 315.992 53.624 316.632C54.12 317.272 54.368 318.112 54.368 319.152C54.368 320.048 54.136 320.88 53.672 321.648C53.208 322.416 52.528 323.032 51.632 323.496C50.736 323.944 49.672 324.168 48.44 324.168ZM56.417 317.304C56.417 315.96 56.681 314.768 57.209 313.728C57.753 312.688 58.481 311.888 59.393 311.328C60.321 310.768 61.353 310.488 62.489 310.488C63.481 310.488 64.345 310.688 65.081 311.088C65.833 311.488 66.433 311.992 66.881 312.6V310.704H70.265V324H66.881V322.056C66.449 322.68 65.849 323.2 65.081 323.616C64.329 324.016 63.457 324.216 62.465 324.216C61.345 324.216 60.321 323.928 59.393 323.352C58.481 322.776 57.753 321.968 57.209 320.928C56.681 319.872 56.417 318.664 56.417 317.304ZM66.881 317.352C66.881 316.536 66.721 315.84 66.401 315.264C66.081 314.672 65.649 314.224 65.105 313.92C64.561 313.6 63.977 313.44 63.353 313.44C62.729 313.44 62.153 313.592 61.625 313.896C61.097 314.2 60.665 314.648 60.329 315.24C60.009 315.816 59.849 316.504 59.849 317.304C59.849 318.104 60.009 318.808 60.329 319.416C60.665 320.008 61.097 320.464 61.625 320.784C62.169 321.104 62.745 321.264 63.353 321.264C63.977 321.264 64.561 321.112 65.105 320.808C65.649 320.488 66.081 320.04 66.401 319.464C66.721 318.872 66.881 318.168 66.881 317.352ZM76.9066 312.768C77.3386 312.064 77.8986 311.512 78.5866 311.112C79.2906 310.712 80.0906 310.512 80.9866 310.512V314.04H80.0986C79.0426 314.04 78.2426 314.288 77.6986 314.784C77.1706 315.28 76.9066 316.144 76.9066 317.376V324H73.5466V310.704H76.9066V312.768ZM82.3857 317.304C82.3857 315.96 82.6497 314.768 83.1777 313.728C83.7218 312.688 84.4498 311.888 85.3618 311.328C86.2898 310.768 87.3218 310.488 88.4578 310.488C89.4498 310.488 90.3138 310.688 91.0498 311.088C91.8018 311.488 92.4018 311.992 92.8498 312.6V310.704H96.2338V324H92.8498V322.056C92.4178 322.68 91.8178 323.2 91.0498 323.616C90.2978 324.016 89.4258 324.216 88.4338 324.216C87.3138 324.216 86.2898 323.928 85.3618 323.352C84.4498 322.776 83.7218 321.968 83.1777 320.928C82.6497 319.872 82.3857 318.664 82.3857 317.304ZM92.8498 317.352C92.8498 316.536 92.6898 315.84 92.3698 315.264C92.0498 314.672 91.6178 314.224 91.0738 313.92C90.5298 313.6 89.9458 313.44 89.3218 313.44C88.6978 313.44 88.1218 313.592 87.5938 313.896C87.0658 314.2 86.6338 314.648 86.2978 315.24C85.9778 315.816 85.8178 316.504 85.8178 317.304C85.8178 318.104 85.9778 318.808 86.2978 319.416C86.6338 320.008 87.0658 320.464 87.5938 320.784C88.1378 321.104 88.7138 321.264 89.3218 321.264C89.9458 321.264 90.5298 321.112 91.0738 320.808C91.6178 320.488 92.0498 320.04 92.3698 319.464C92.6898 318.872 92.8498 318.168 92.8498 317.352ZM106.883 310.512C108.467 310.512 109.747 311.016 110.723 312.024C111.699 313.016 112.187 314.408 112.187 316.2V324H108.827V316.656C108.827 315.6 108.563 314.792 108.035 314.232C107.507 313.656 106.787 313.368 105.875 313.368C104.947 313.368 104.211 313.656 103.667 314.232C103.139 314.792 102.875 315.6 102.875 316.656V324H99.5154V310.704H102.875V312.36C103.323 311.784 103.891 311.336 104.579 311.016C105.283 310.68 106.051 310.512 106.883 310.512ZM120.237 317.304C120.237 315.96 120.501 314.768 121.029 313.728C121.573 312.688 122.309 311.888 123.237 311.328C124.165 310.768 125.197 310.488 126.333 310.488C127.197 310.488 128.021 310.68 128.805 311.064C129.589 311.432 130.213 311.928 130.677 312.552V306.24H134.085V324H130.677V322.032C130.261 322.688 129.677 323.216 128.925 323.616C128.173 324.016 127.301 324.216 126.309 324.216C125.189 324.216 124.165 323.928 123.237 323.352C122.309 322.776 121.573 321.968 121.029 320.928C120.501 319.872 120.237 318.664 120.237 317.304ZM130.701 317.352C130.701 316.536 130.541 315.84 130.221 315.264C129.901 314.672 129.469 314.224 128.925 313.92C128.381 313.6 127.797 313.44 127.173 313.44C126.549 313.44 125.973 313.592 125.445 313.896C124.917 314.2 124.485 314.648 124.149 315.24C123.829 315.816 123.669 316.504 123.669 317.304C123.669 318.104 123.829 318.808 124.149 319.416C124.485 320.008 124.917 320.464 125.445 320.784C125.989 321.104 126.565 321.264 127.173 321.264C127.797 321.264 128.381 321.112 128.925 320.808C129.469 320.488 129.901 320.04 130.221 319.464C130.541 318.872 130.701 318.168 130.701 317.352ZM136.503 317.304C136.503 315.96 136.767 314.768 137.295 313.728C137.839 312.688 138.567 311.888 139.479 311.328C140.407 310.768 141.439 310.488 142.575 310.488C143.567 310.488 144.431 310.688 145.167 311.088C145.919 311.488 146.519 311.992 146.967 312.6V310.704H150.351V324H146.967V322.056C146.535 322.68 145.935 323.2 145.167 323.616C144.415 324.016 143.543 324.216 142.551 324.216C141.431 324.216 140.407 323.928 139.479 323.352C138.567 322.776 137.839 321.968 137.295 320.928C136.767 319.872 136.503 318.664 136.503 317.304ZM146.967 317.352C146.967 316.536 146.807 315.84 146.487 315.264C146.167 314.672 145.735 314.224 145.191 313.92C144.647 313.6 144.063 313.44 143.439 313.44C142.815 313.44 142.239 313.592 141.711 313.896C141.183 314.2 140.751 314.648 140.415 315.24C140.095 315.816 139.935 316.504 139.935 317.304C139.935 318.104 140.095 318.808 140.415 319.416C140.751 320.008 141.183 320.464 141.711 320.784C142.255 321.104 142.831 321.264 143.439 321.264C144.063 321.264 144.647 321.112 145.191 320.808C145.735 320.488 146.167 320.04 146.487 319.464C146.807 318.872 146.967 318.168 146.967 317.352ZM161.001 310.512C162.585 310.512 163.865 311.016 164.841 312.024C165.817 313.016 166.305 314.408 166.305 316.2V324H162.945V316.656C162.945 315.6 162.681 314.792 162.153 314.232C161.625 313.656 160.905 313.368 159.993 313.368C159.065 313.368 158.329 313.656 157.785 314.232C157.257 314.792 156.993 315.6 156.993 316.656V324H153.633V310.704H156.993V312.36C157.441 311.784 158.009 311.336 158.697 311.016C159.401 310.68 160.169 310.512 161.001 310.512ZM187.435 312.432C187.435 313.328 187.219 314.168 186.786 314.952C186.371 315.736 185.707 316.368 184.795 316.848C183.899 317.328 182.763 317.568 181.387 317.568H178.579V324H175.219V307.248H181.387C182.683 307.248 183.787 307.472 184.699 307.92C185.611 308.368 186.291 308.984 186.739 309.768C187.203 310.552 187.435 311.44 187.435 312.432ZM181.243 314.856C182.171 314.856 182.859 314.648 183.307 314.232C183.755 313.8 183.979 313.2 183.979 312.432C183.979 310.8 183.067 309.984 181.243 309.984H178.579V314.856H181.243ZM202.18 317.064C202.18 317.544 202.148 317.976 202.084 318.36H192.364C192.444 319.32 192.78 320.072 193.372 320.616C193.964 321.16 194.692 321.432 195.556 321.432C196.804 321.432 197.692 320.896 198.22 319.824H201.844C201.46 321.104 200.724 322.16 199.636 322.992C198.548 323.808 197.212 324.216 195.628 324.216C194.348 324.216 193.196 323.936 192.172 323.376C191.164 322.8 190.372 321.992 189.796 320.952C189.236 319.912 188.956 318.712 188.956 317.352C188.956 315.976 189.236 314.768 189.796 313.728C190.356 312.688 191.14 311.888 192.148 311.328C193.156 310.768 194.316 310.488 195.628 310.488C196.892 310.488 198.02 310.76 199.012 311.304C200.02 311.848 200.796 312.624 201.34 313.632C201.9 314.624 202.18 315.768 202.18 317.064ZM198.7 316.104C198.684 315.24 198.372 314.552 197.764 314.04C197.156 313.512 196.412 313.248 195.532 313.248C194.7 313.248 193.996 313.504 193.42 314.016C192.86 314.512 192.516 315.208 192.388 316.104H198.7ZM212.001 310.512C213.585 310.512 214.865 311.016 215.841 312.024C216.817 313.016 217.305 314.408 217.305 316.2V324H213.945V316.656C213.945 315.6 213.681 314.792 213.153 314.232C212.625 313.656 211.905 313.368 210.993 313.368C210.065 313.368 209.329 313.656 208.785 314.232C208.257 314.792 207.993 315.6 207.993 316.656V324H204.633V310.704H207.993V312.36C208.441 311.784 209.009 311.336 209.697 311.016C210.401 310.68 211.169 310.512 212.001 310.512ZM225.708 310.488C226.7 310.488 227.572 310.688 228.324 311.088C229.076 311.472 229.668 311.976 230.1 312.6V310.704H233.484V324.096C233.484 325.328 233.236 326.424 232.74 327.384C232.244 328.36 231.5 329.128 230.508 329.688C229.516 330.264 228.316 330.552 226.908 330.552C225.02 330.552 223.468 330.112 222.252 329.232C221.052 328.352 220.372 327.152 220.212 325.632H223.548C223.724 326.24 224.1 326.72 224.676 327.072C225.268 327.44 225.98 327.624 226.812 327.624C227.788 327.624 228.58 327.328 229.188 326.736C229.796 326.16 230.1 325.28 230.1 324.096V322.032C229.668 322.656 229.068 323.176 228.3 323.592C227.548 324.008 226.684 324.216 225.708 324.216C224.588 324.216 223.564 323.928 222.636 323.352C221.708 322.776 220.972 321.968 220.428 320.928C219.9 319.872 219.636 318.664 219.636 317.304C219.636 315.96 219.9 314.768 220.428 313.728C220.972 312.688 221.7 311.888 222.612 311.328C223.54 310.768 224.572 310.488 225.708 310.488ZM230.1 317.352C230.1 316.536 229.94 315.84 229.62 315.264C229.3 314.672 228.868 314.224 228.324 313.92C227.78 313.6 227.196 313.44 226.572 313.44C225.948 313.44 225.372 313.592 224.844 313.896C224.316 314.2 223.884 314.648 223.548 315.24C223.228 315.816 223.068 316.504 223.068 317.304C223.068 318.104 223.228 318.808 223.548 319.416C223.884 320.008 224.316 320.464 224.844 320.784C225.388 321.104 225.964 321.264 226.572 321.264C227.196 321.264 227.78 321.112 228.324 320.808C228.868 320.488 229.3 320.04 229.62 319.464C229.94 318.872 230.1 318.168 230.1 317.352ZM235.901 317.304C235.901 315.96 236.165 314.768 236.693 313.728C237.237 312.688 237.965 311.888 238.877 311.328C239.805 310.768 240.837 310.488 241.973 310.488C242.965 310.488 243.829 310.688 244.565 311.088C245.317 311.488 245.917 311.992 246.365 312.6V310.704H249.749V324H246.365V322.056C245.933 322.68 245.333 323.2 244.565 323.616C243.813 324.016 242.941 324.216 241.949 324.216C240.829 324.216 239.805 323.928 238.877 323.352C237.965 322.776 237.237 321.968 236.693 320.928C236.165 319.872 235.901 318.664 235.901 317.304ZM246.365 317.352C246.365 316.536 246.205 315.84 245.885 315.264C245.565 314.672 245.133 314.224 244.589 313.92C244.045 313.6 243.461 313.44 242.837 313.44C242.213 313.44 241.637 313.592 241.109 313.896C240.581 314.2 240.149 314.648 239.813 315.24C239.493 315.816 239.333 316.504 239.333 317.304C239.333 318.104 239.493 318.808 239.813 319.416C240.149 320.008 240.581 320.464 241.109 320.784C241.653 321.104 242.229 321.264 242.837 321.264C243.461 321.264 244.045 321.112 244.589 320.808C245.133 320.488 245.565 320.04 245.885 319.464C246.205 318.872 246.365 318.168 246.365 317.352ZM252.167 317.304C252.167 315.96 252.431 314.768 252.959 313.728C253.503 312.688 254.239 311.888 255.167 311.328C256.095 310.768 257.127 310.488 258.263 310.488C259.127 310.488 259.951 310.68 260.735 311.064C261.519 311.432 262.143 311.928 262.607 312.552V306.24H266.015V324H262.607V322.032C262.191 322.688 261.607 323.216 260.855 323.616C260.103 324.016 259.231 324.216 258.239 324.216C257.119 324.216 256.095 323.928 255.167 323.352C254.239 322.776 253.503 321.968 252.959 320.928C252.431 319.872 252.167 318.664 252.167 317.304ZM262.631 317.352C262.631 316.536 262.471 315.84 262.151 315.264C261.831 314.672 261.399 314.224 260.855 313.92C260.311 313.6 259.727 313.44 259.103 313.44C258.479 313.44 257.903 313.592 257.375 313.896C256.847 314.2 256.415 314.648 256.079 315.24C255.759 315.816 255.599 316.504 255.599 317.304C255.599 318.104 255.759 318.808 256.079 319.416C256.415 320.008 256.847 320.464 257.375 320.784C257.919 321.104 258.495 321.264 259.103 321.264C259.727 321.264 260.311 321.112 260.855 320.808C261.399 320.488 261.831 320.04 262.151 319.464C262.471 318.872 262.631 318.168 262.631 317.352ZM281.849 310.704V324H278.465V322.32C278.033 322.896 277.465 323.352 276.761 323.688C276.073 324.008 275.321 324.168 274.505 324.168C273.465 324.168 272.545 323.952 271.745 323.52C270.945 323.072 270.313 322.424 269.849 321.576C269.401 320.712 269.177 319.688 269.177 318.504V310.704H272.537V318.024C272.537 319.08 272.801 319.896 273.329 320.472C273.857 321.032 274.577 321.312 275.489 321.312C276.417 321.312 277.145 321.032 277.673 320.472C278.201 319.896 278.465 319.08 278.465 318.024V310.704H281.849ZM284.3 317.304C284.3 315.96 284.564 314.768 285.092 313.728C285.636 312.688 286.364 311.888 287.276 311.328C288.204 310.768 289.236 310.488 290.372 310.488C291.364 310.488 292.228 310.688 292.964 311.088C293.716 311.488 294.316 311.992 294.764 312.6V310.704H298.148V324H294.764V322.056C294.332 322.68 293.732 323.2 292.964 323.616C292.212 324.016 291.34 324.216 290.348 324.216C289.228 324.216 288.204 323.928 287.276 323.352C286.364 322.776 285.636 321.968 285.092 320.928C284.564 319.872 284.3 318.664 284.3 317.304ZM294.764 317.352C294.764 316.536 294.604 315.84 294.284 315.264C293.964 314.672 293.532 314.224 292.988 313.92C292.444 313.6 291.86 313.44 291.236 313.44C290.612 313.44 290.036 313.592 289.508 313.896C288.98 314.2 288.548 314.648 288.212 315.24C287.892 315.816 287.732 316.504 287.732 317.304C287.732 318.104 287.892 318.808 288.212 319.416C288.548 320.008 288.98 320.464 289.508 320.784C290.052 321.104 290.628 321.264 291.236 321.264C291.86 321.264 292.444 321.112 292.988 320.808C293.532 320.488 293.964 320.04 294.284 319.464C294.604 318.872 294.764 318.168 294.764 317.352ZM308.797 310.512C310.381 310.512 311.661 311.016 312.637 312.024C313.613 313.016 314.101 314.408 314.101 316.2V324H310.741V316.656C310.741 315.6 310.477 314.792 309.949 314.232C309.421 313.656 308.701 313.368 307.789 313.368C306.861 313.368 306.125 313.656 305.581 314.232C305.053 314.792 304.789 315.6 304.789 316.656V324H301.429V310.704H304.789V312.36C305.237 311.784 305.805 311.336 306.493 311.016C307.197 310.68 307.965 310.512 308.797 310.512Z" fill="#1B1464"/>
</svg>
